<svg width="96" height="96" viewBox="0 0 96 96" fill="none" xmlns="http://www.w3.org/2000/svg">
<path d="M86.0625 12.9001C85.8984 12.6665 85.6806 12.4757 85.4273 12.3439C85.1741 12.212 84.8929 12.143 84.6075 12.1426H67.875C67.14 12.1426 66.48 12.5926 66.2175 13.2751L48 60.7576L29.7825 13.2751C29.6529 12.941 29.4252 12.6539 29.1293 12.4518C28.8335 12.2496 28.4833 12.1418 28.125 12.1426H11.4C11.1143 12.1424 10.8329 12.2113 10.5796 12.3433C10.3263 12.4753 10.1087 12.6665 9.94519 12.9007C9.7817 13.1349 9.6772 13.4051 9.6406 13.6884C9.60399 13.9716 9.63636 14.2595 9.73495 14.5276L37.4475 89.4976C37.455 89.4976 37.455 89.4976 37.455 89.5051C37.5 89.6401 37.575 89.7676 37.6575 89.8876C37.6725 89.9026 37.6875 89.9176 37.695 89.9326C37.725 89.9776 37.77 90.0151 37.8 90.0526C37.875 90.1351 37.95 90.2101 38.04 90.2851C38.085 90.3226 38.13 90.3526 38.1825 90.3826C38.28 90.4426 38.3775 90.4876 38.4825 90.5326C38.535 90.5476 38.58 90.5701 38.625 90.5851C38.7825 90.6301 38.9475 90.6601 39.12 90.6601H56.9025C57.075 90.6601 57.24 90.6301 57.39 90.5851C57.4425 90.5701 57.4875 90.5476 57.54 90.5326C57.645 90.4876 57.7425 90.4426 57.84 90.3826C57.8925 90.3526 57.9375 90.3226 57.9825 90.2851C58.0725 90.2176 58.1475 90.1426 58.2225 90.0526C58.26 90.0151 58.2975 89.9776 58.3275 89.9326C58.3425 89.9176 58.3575 89.9101 58.365 89.8876C58.4475 89.7676 58.515 89.6401 58.5675 89.5051V89.4976L86.28 14.5276C86.4675 13.9801 86.3925 13.3726 86.0625 12.9001Z" fill="#5795a7"/>
</svg>
